<?xml version="1.0" encoding="UTF-8"?>
<svg xmlns="http://www.w3.org/2000/svg" viewBox="0 0 1200 620" width="1200" height="620" role="img" aria-label="Mapa mundi simplificado em SVG">
  <title>Mapa mundi simplificado</title>
  <desc>Mapa mundi em SVG com continentes simplificados, baseado em polígonos GeoJSON.</desc>
  <rect width="100%" height="100%" fill="#ffffff"/>
  <g id="mapa-mundi" stroke-linejoin="round" stroke-linecap="round">
    <path id="América do Norte" data-name="América do Norte" d="M 68.00,263.33 L 93.33,138.89 L 188.33,86.00 L 299.17,86.00 L 410.00,138.89 L 435.33,232.22 L 340.33,285.11 L 267.50,263.33 L 204.17,232.22 L 68.00,263.33 Z" fill="#d9e6f2" stroke="#1f4e79" stroke-width="2"/>
    <path id="América do Sul" data-name="América do Sul" d="M 340.33,272.67 L 384.67,278.89 L 457.50,325.56 L 489.17,387.78 L 441.67,481.11 L 372.00,481.11 L 343.50,372.22 L 340.33,272.67 Z" fill="#d9e6f2" stroke="#1f4e79" stroke-width="2"/>
    <path id="Europa" data-name="Europa" d="M 565.17,201.11 L 600.00,129.56 L 679.17,92.22 L 742.50,123.33 L 726.67,185.56 L 663.33,201.11 L 565.17,201.11 Z" fill="#d9e6f2" stroke="#1f4e79" stroke-width="2"/>
    <path id="África" data-name="África" d="M 543.00,201.11 L 638.00,194.89 L 710.83,216.67 L 758.33,278.89 L 733.00,418.89 L 663.33,418.89 L 615.83,403.33 L 552.50,325.56 L 543.00,201.11 Z" fill="#d9e6f2" stroke="#1f4e79" stroke-width="2"/>
    <path id="Ásia" data-name="Ásia" d="M 710.83,294.44 L 742.50,138.89 L 853.33,86.00 L 1011.67,123.33 L 1138.33,138.89 L 1075.00,278.89 L 932.50,341.11 L 837.50,294.44 L 774.17,325.56 L 710.83,294.44 Z" fill="#d9e6f2" stroke="#1f4e79" stroke-width="2"/>
    <path id="Oceania" data-name="Oceania" d="M 948.33,341.11 L 1090.83,341.11 L 1170.00,387.78 L 1122.50,450.00 L 1027.50,450.00 L 954.67,403.33 L 948.33,341.11 Z" fill="#d9e6f2" stroke="#1f4e79" stroke-width="2"/>
    <path id="Antártida" data-name="Antártida" d="M 30.00,496.67 L 220.00,534.00 L 410.00,512.22 L 600.00,543.33 L 790.00,512.22 L 980.00,534.00 L 1170.00,496.67 L 1170.00,574.44 L 30.00,574.44 L 30.00,496.67 Z" fill="#d9e6f2" stroke="#1f4e79" stroke-width="2"/>
  </g>
</svg>
